<svg xmlns="http://www.w3.org/2000/svg" viewBox="0 0 640 360"><path fill="#fff" d="M0 0h640v360H0z"/><g><path d="M257.1 188.1c1.5.5 2.7 1 4 1.5.4.2.9.3 1.1.9 1.1 3.3-1.8 7.8-5.3 8.2-3.1.3-6.2.2-9.3 0-2.6-.2-3.9-1.4-3.9-4v-6.1c0-.9.4-2-1.2-2.1-1.2 0-2 .2-2.3 1.5-1.5 6.3-6.3 9.1-12 11.1-1.6.6-2.8.4-3.3-1.4-.3-1-1.4-1.6-1.5-2.8 1.7-.5 3.3-.9 5-1.5 1.7-.6 3.2-1.5 4.4-2.8.9-1 2.1-2.4 1.7-3.5-.4-1.3-2.2-.6-3.4-.5-2.3.3-2.9-.5-2.8-2.8.2-6.5.1-13 0-19.4 0-1.7.1-2.5 2.3-2.5 8.1.2 16.2.1 24.3 0 1.8 0 2.3.4 2.3 2.2-.1 6.8-.1 13.5 0 20.3 0 1.8-.5 2.5-2.3 2.2-.8-.1-1.6 0-2.3 0-2.8-.5-3.4.8-3.3 3.3.2 3.8 2.8 5.5 6.4 3.9.9-.4 1.3-1.2 1.4-2.1.1-1.1.2-2.2.3-3.6ZM267.2 190.2c0-1.8-.1-3.7 0-5.5 0-.9-1-2.4.4-2.8 1.4-.4 3.1-.2 4.6 0 .7 0 .4 1 .4 1.5 0 2 .1 4.1 0 6.1-.2 1.9.6 2.2 2.3 2.2 6.6 0 6.6.1 6.6-6.4s0-6.7-6.6-6.7q-6.4 0-6.4-6.4c0-2 .2-4.1 0-6.1-.4-2.6 1.1-2.5 2.9-2.5 1.7 0 3.4-.2 2.9 2.4-.2.8 0 1.7 0 2.6 0 4.8 1.4 5.8 6.2 4.8 1.3-.3 1.1-1.1 1.1-1.9 0-3 .2-6-.1-9-.2-2.7 1.6-1.9 2.8-1.9 1.3 0 3.3-1 3.1 1.9-.2 3 0 6-.1 9 0 1.3.3 1.8 1.8 1.9 6.4.4 6.3.4 6.4-6 0-1.6-1.3-4 2.3-3.9 2.5 0 3.5.4 3.2 3.3-.4 3.2-.2 6.6 0 9.9 0 1.5-.4 2-2 2-3.1-.1-6.2 0-9.4 0-1.7 0-2.4.3-2.3 2.2.2 3 .1 6 0 9 0 1.4.4 1.8 1.8 1.8 7.7.4 7.7.4 7.7-7 0-1-.7-2.5.5-2.8 1.4-.4 3.1-.3 4.6 0 1 .2.5 1.3.5 2V197c0 .8.6 2.1-.7 2.1-1.6 0-3.9 1.1-4.8-.7-.7-1.6-1.7-1.3-2.7-1.3h-19c-1 0-2-.3-2.7 1.3-.8 1.8-3.1.8-4.7.6-1.5-.1-.5-1.5-.5-2.4v-6.4ZM187.7 171.2l-4.4.6c-1.6.2-2.7.3-3.6-1.7-1.4-3-7.2-3.3-9.4-.8-1.8 2-1.1 4.7 1.9 5.6 2.9 1 6 1.4 9 2.4 5.9 1.8 8.5 6.9 6.8 12.8-.1.4-.2.7-.4 1.1-2.1 4.7-7.7 6.9-15.5 5.9-6.2-.8-9.8-3.9-10.7-9-.3-1.3 0-1.7 1.3-1.7 1 0 1.9-.2 2.9-.3 1.6-.2 2.7-.3 3.4 1.8 1.2 3.9 8.5 4.8 11.1 1.7 1.9-2.2 1.1-5-2.1-6.2-3.1-1.1-6.4-1.7-9.5-2.8-5.3-1.9-7.7-7-5.8-12.1.8-2.3 2.4-4 4.6-5 4.9-2.2 9.8-2.2 14.7-.1 3.4 1.4 5.2 4.2 5.8 7.8ZM218.7 171.1l-4 .6c-1.8.3-3.1.4-4.1-1.8-1.4-2.9-7.4-3.1-9.5-.5-1.6 2-.9 4.6 1.9 5.5 2.9 1 6 1.5 9 2.4 6 1.8 8.7 7.1 6.8 13-.1.4-.3.7-.4 1.1-2.2 4.6-7.9 6.7-15.6 5.7-6-.8-9.5-3.8-10.5-8.8-.2-1.2-.3-1.8 1.2-1.8 1.1 0 2.1-.2 3.2-.4 1.5-.2 2.5-.2 3.1 1.8 1.3 3.9 8.3 5 11.1 1.9 1.9-2.1 1.2-5-1.7-6.1-2.8-1.1-5.8-1.6-8.7-2.5-5.1-1.5-7.7-4.8-7.5-9.7 0-3.6 1.8-6.3 5-7.9 4.9-2.3 10-2.3 15-.1 3.2 1.4 5 4.1 5.6 7.7ZM402.8 193.2c1.4-.6 2.7-1 3.9-1.5 7.3-3.1 8.4-8.2 8.5-15 0-.8-.3-1.3-1.2-1.3h-1.2c-2.4 0-5.5-.8-7.1.4-1.7 1.3-.5 4.5-.5 6.9 0 1.7-.5 2.1-2.1 2.1-4.2 0-4.2 0-4.2-4.2 0-5.1 0-5.4-5.1-5-3.5.2-2.4-1.9-2.6-3.6-.3-2.4 1-2.3 2.8-2.2 5.1.2 5.2.2 4.9-5-.1-2.2.4-2.9 2.6-2.7 1.8.2 4.1-.9 3.8 2.7-.4 4.9-.1 5 4.9 5 4.9 0 5.2 0 4.9-5-.2-3 1.5-2.5 3.4-2.7 2-.1 2.9.2 2.8 2.6-.3 5.2-.1 5.3 5.2 5 2.1-.1 3.1.2 2.8 2.5-.2 1.7.5 3.6-2.6 3.3-5.2-.4-5.2-.1-5.6 5-.5 8.2-4.6 13.9-12.2 17.1-1.7.7-2.8.8-3.6-1.1-.5-1.2-1.5-2.2-2.4-3.3ZM157.4 186.1c-1.7 7.1-5.3 10.2-13 11.1-6.9.8-13-2.3-15.8-8-3.6-7.5-2.6-17 2.5-22.6 6.6-7.2 20.4-5.7 24.9 2.7 1.5 2.8 1.3 3.1-1.6 3.7-.8.2-1.5.2-2.3.5-1.3.4-2.1.3-2.7-1.2-1.1-3-3.5-4.3-6.6-4.3-3.3 0-6 1.3-7.4 4.3-2.3 4.9-2.4 9.9.1 14.8 1.6 3.2 4.5 4.4 8 4.1 3.3-.2 5.5-1.8 6.4-5 .3-1 .6-1.6 1.8-1.2 1.9.5 3.9.3 5.7 1.2Z" fill="#505050"/><path d="M59.3 185.2H22.8c-2.2 0-2.8-.6-2.7-2.7 0-2 .5-2.6 2.6-2.6h73.9c2.1 0 2.6.6 2.6 2.6 0 2.1-.5 2.8-2.7 2.7-12.4-.1-24.7 0-37.1 0ZM580.3 185.2h-36.8c-2.1 0-2.6-.6-2.6-2.6 0-1.8.1-2.7 2.4-2.7h74.2c2.3 0 2.3 1 2.4 2.7 0 2-.5 2.6-2.6 2.6h-37.1Z" fill="#1579bf"/><path d="m337.6 177.7 2.4 1.7q3.7 2.4 2.1 6.6c-3.4 9.1-11.2 13.4-20.6 11.4-4.7-1-7.8-4.3-7.9-9.1-.1-8.2 0-16.4 0-24.7 0-1.1.3-1.7 1.5-1.6h1.2c4.1 0 4.1 0 3.9 4.1-.2 5.7-.5 11.4-.5 17.1 0 3.2-.5 6.9 3.8 8.2 4.1 1.2 8.7-.7 11.1-4.5 1.7-2.8 2.4-5.9 3.1-9.4ZM450.4 179.4c-4.1 2.3-7.9 4-11.9 5.5-1.8.7-2.8.7-3.5-1.2-.4-1.1-1.3-2.1-2.1-3.5 2.5-.9 4.9-1.6 7.2-2.6 8.3-3.4 15.8-8 21.6-14.9 1.3-1.5 2-.4 2.9.1 3.9 2.5 3.9 2.5.6 5.6-1.2 1.1-2.3 2.5-3.7 3.3-4.2 2.3-5 5.7-4.7 10.1.4 4.6 0 9.3.2 13.9 0 2-.5 2.6-2.4 2.4h-2.3c-1.5.2-1.9-.4-1.9-1.9.1-5.4 0-10.8 0-16.7ZM354.6 193c3.5-1.3 6.7-2.6 8.8-5.7.5-.7 1-1.4 1.3-2.2 2.1-4.8 1.4-5.8-3.6-5.8-2.9 0-5.9 0-8.8.1-2.2.2-2-1.2-1.7-2.4.3-1.2-1.4-3.4 1.6-3.4h33c1.2 0 1.4.5 1.5 1.5.3 4.2.4 4.2-4 4.2-2.4 0-4.9.2-7.3 0-2.3-.2-3 .7-3.2 2.8-.8 7.5-4.8 12.6-11.7 15.7-1.4.6-2.2.7-3-.8-.7-1.3-1.8-2.5-2.9-3.9ZM479.9 196.6c-.9.3-.9-.5-1.1-1-2.1-4.6-1.7-5.4 3.1-6.3 11-2 19-8 23.4-18.4 1.1-2.5 1.6-2 3.1-.5 3.2 3.3 3.3 3.2.9 7.4-6.4 11.3-16.9 16.3-29.1 18.6h-.3ZM378.7 166.9c.1 1.6-.5 1.9-2 1.8-6.6-.1-13.2-.2-19.8 0-2 0-2.2-.9-1.9-2.2.3-1.2-1.4-3.5 1.8-3.5h20.1c.6 0 1.5-.3 1.6.7.1 1.6 1.1 1.4 2 .9 1.1-.5 1.6 0 2 .8.6 1.5 2 2.8 1.5 4.4-.2.6-1.6 1-2.5 1.2-.9.2-.9-.9-1.1-1.4-.5-.9-.6-2-1.8-2.8Z" fill="#505050"/><path d="M481.5 164.3c1.1.7 2.1 1.2 3.1 1.9 1.9 1.3 3.7 2.8 5.6 4.1 2 1.3 2 2.4.5 4.2-2.6 3-2.4 3.1-5.5.3-1.9-1.7-4-3.4-6.3-4.6-1.7-.9-1.7-1.7-.4-2.9 1-.9 1.6-2.4 2.9-3Z" fill="#515151"/><path d="M386.4 169.6c-1.5-1.4-2.2-3.4-2.7-5.1-.4-1.3 1.8-1.7 2.4-1.5 1.9.8 2.5 2.8 2.9 4.6.3 1.5-1.6 1.2-2.6 2Z" fill="#555"/><path d="M431.3 165.5c0 1.4-1.6 1.6-2.1 1.5-2.1-.6-2-2.9-2.7-4.5-.5-1.2 1.6-1.4 2-1.3 1.9.7 1.9 2.8 2.7 4.3Z" fill="#585858"/><path d="M421.8 163.4c1-.5 2.2-1.5 3.1-.5 1.1 1.2 1.7 2.8 1.9 4.4.1.9-1.1.9-1.8 1.1-.8.3-1.3 0-1.6-.8-.5-1.4-1.1-2.8-1.7-4.3Z" fill="#545454"/><path d="M242.8 179.6h7.3c.9 0 1.5.2 1.5 1.3 0 1-.5 1.3-1.4 1.3h-15.4c-1 0-1.4-.4-1.3-1.4 0-1.1.7-1.2 1.6-1.2h7.9Z" fill="#ebebeb"/><path d="M242.6 168.9H235c-.8 0-1.5 0-1.6-1.1 0-1.2.7-1.2 1.5-1.2h14.9c.9 0 1.8-.2 1.7 1.2 0 1.2-.9 1.1-1.7 1.1h-7.3Z" fill="#f7f7f7"/><path d="M242.3 175.4H235c-.7 0-1.6.2-1.6-1 0-1.3.7-1.3 1.7-1.3h14.8c.7 0 1.6-.2 1.6 1 0 1.3-.8 1.3-1.7 1.3h-7.6Z" fill="#fbfbfb"/></g></svg>